<?xml version="1.0" encoding="UTF-8" standalone="no"?>
<!DOCTYPE svg PUBLIC "-//W3C//DTD SVG 1.1//EN" "http://www.w3.org/Graphics/SVG/1.1/DTD/svg11.dtd">
<svg width="100%" height="100%" viewBox="0 0 23623 11812" version="1.1" xmlns="http://www.w3.org/2000/svg" xmlns:xlink="http://www.w3.org/1999/xlink" xml:space="preserve" xmlns:serif="http://www.serif.com/" style="fill-rule:evenodd;clip-rule:evenodd;stroke-linejoin:round;stroke-miterlimit:2;">
    <g transform="matrix(5.11706,0,0,4.94873,-833.825,-2576.48)">
        <path d="M845.459,1889.32L657.012,1809.44L844.534,1734.29L845.459,1889.32Z" style="fill:rgb(84,204,232);"/>
    </g>
    <g transform="matrix(5.03036,0,0,4.90455,-753.221,-2499.88)">
        <path d="M844.147,1583.38L628.723,1505.72L549.313,1615.59L654.297,1660.89L844.147,1583.38Z" style="fill:rgb(66,232,227);"/>
    </g>
    <g transform="matrix(5.09963,0,0,4.90455,-814.888,-2493.64)">
        <path d="M844.784,1225.62L844.393,1436L723.037,1386.56L844.784,1225.62Z" style="fill:rgb(179,255,249);"/>
    </g>
    <g transform="matrix(5.02745,0,0,4.90455,-759.129,-2498.5)">
        <path d="M845.425,1436.57L722.64,1386.85L630.276,1505.43L845.425,1436.57Z" style="fill:rgb(144,252,246);"/>
    </g>
    <g transform="matrix(5.02423,0,0,4.90455,-757.099,-2499.88)">
        <path d="M845.949,1583.38L630.266,1505.72L845.558,1436.85L845.949,1583.38Z" style="fill:rgb(81,240,244);"/>
    </g>
    <g transform="matrix(5.38156,0,0,4.79127,-872.621,-2278.76)">
        <path d="M293.891,1951.89L364.939,1850.2L457.68,1887.61L293.891,1951.89Z" style="fill:rgb(163,216,82);"/>
    </g>
    <g transform="matrix(5.03921,0,0,4.90455,-768.999,-2499.88)">
        <path d="M845.725,1734.44L653.273,1660.39L846.131,1583.38L845.725,1734.44Z" style="fill:rgb(48,216,211);"/>
    </g>
    <g transform="matrix(5.116,0,0,4.95007,-806.723,-2573.72)">
        <path d="M462.172,1733.02L371.001,1850.45L468.668,1886.69L660.272,1810.1L462.172,1733.02Z" style="fill:rgb(193,234,95);"/>
    </g>
    <g transform="matrix(5.05384,0,0,4.96299,-755.419,-2601.19)">
        <path d="M547.197,1616.98L653.273,1660.39L457.802,1734.04L547.197,1616.98Z" style="fill:rgb(74,198,232);"/>
    </g>
    <g transform="matrix(5.03145,0,0,4.99791,-756.06,-2660.75)">
        <path d="M657.012,1809.44L459.966,1733.84L654.341,1660.39L844.01,1734.01L657.012,1809.44Z" style="fill:rgb(61,188,227);"/>
    </g>
    <g transform="matrix(5.07968,0,0,4.90455,-804.21,-2499.17)">
        <path d="M655.203,1964.58L845.85,1890.54L845.999,2041.17L655.203,1964.58Z" style="fill:rgb(190,247,99);"/>
    </g>
    <g transform="matrix(5.03269,0,0,5.01533,-760.303,-2704.76)">
        <path d="M469.33,1887.44L661.522,1811.93L845.025,1889.78L660.263,1962.89L469.33,1887.44Z" style="fill:rgb(237,248,125);"/>
    </g>
    <g transform="matrix(5.21694,0,0,4.95071,-825.133,-2588.38)">
        <path d="M473.745,2033.44L649.384,1964.87L465.152,1888.56L294.062,1951.72L473.745,2033.44Z" style="fill:rgb(211,242,102);"/>
    </g>
    <g transform="matrix(5.05939,0,0,4.83511,-776.743,-2358.93)">
        <path d="M840.529,2042.87L652.402,2114.31L838.195,2202.41L840.529,2042.87Z" style="fill:rgb(67,198,163);"/>
    </g>
    <g transform="matrix(5.01011,0,0,4.90455,-733.673,-2500.23)">
        <path d="M657.739,1965.48L843.826,2041.5L654.112,2114.99L475.047,2034.61L657.739,1965.48Z" style="fill:rgb(92,229,163);"/>
    </g>
    <g transform="matrix(-5.08629,0,0,4.94873,7776.6,-2575.61)">
        <path d="M845.459,1889.32L657.012,1809.44L844.534,1734.29L845.459,1889.32Z" style="fill:rgb(75,116,247);"/>
    </g>
    <g transform="matrix(-5.00011,0,0,4.90455,7696.48,-2499)">
        <path d="M844.147,1583.38L628.723,1505.72L549.313,1615.59L654.297,1660.89L844.147,1583.38Z" style="fill:rgb(63,153,234);"/>
    </g>
    <g transform="matrix(-5.06897,0,0,4.90455,7757.78,-2492.76)">
        <path d="M844.784,1225.62L844.393,1436L723.037,1386.56L844.784,1225.62Z" style="fill:rgb(125,199,249);"/>
    </g>
    <g transform="matrix(-4.99722,0,0,4.90455,7702.35,-2497.63)">
        <path d="M845.425,1436.57L722.64,1386.85L630.276,1505.43L845.425,1436.57Z" style="fill:rgb(98,178,244);"/>
    </g>
    <g transform="matrix(-4.99402,0,0,4.90455,7700.34,-2499)">
        <path d="M845.949,1583.38L630.266,1505.72L845.558,1436.85L845.949,1583.38Z" style="fill:rgb(73,168,244);"/>
    </g>
    <g transform="matrix(-5.3492,0,0,4.79127,7815.16,-2277.88)">
        <path d="M293.891,1951.89L364.939,1850.2L457.68,1887.61L293.891,1951.89Z" style="fill:rgb(92,92,234);"/>
    </g>
    <g transform="matrix(-5.0002,0,0,4.90455,7706.47,-2499)">
        <path d="M845.049,1734.3L653.273,1660.39L846.131,1583.38L845.049,1734.3Z" style="fill:rgb(64,122,238);"/>
    </g>
    <g transform="matrix(-5.08524,0,0,4.95007,7749.66,-2572.85)">
        <path d="M462.172,1733.02L371.001,1850.45L468.668,1886.69L660.272,1810.1L462.172,1733.02Z" style="fill:rgb(116,116,247);"/>
    </g>
    <g transform="matrix(-5.02345,0,0,4.96299,7698.67,-2600.31)">
        <path d="M547.197,1616.98L653.273,1660.39L457.802,1734.04L547.197,1616.98Z" style="fill:rgb(66,128,226);"/>
    </g>
    <g transform="matrix(-5.0012,0,0,4.99791,7699.3,-2659.88)">
        <path d="M657.012,1809.44L459.966,1733.84L654.341,1660.39L843.447,1734.09L657.012,1809.44Z" style="fill:rgb(58,108,229);"/>
    </g>
    <g transform="matrix(-5.04914,0,0,4.90455,7747.16,-2498.3)">
        <path d="M655.203,1964.58L845.85,1890.54L845.999,2041.17L655.203,1964.58Z" style="fill:rgb(168,121,242);"/>
    </g>
    <g transform="matrix(-5.00243,0,0,5.01533,7703.52,-2703.89)">
        <path d="M469.33,1887.44L661.522,1811.93L845.025,1889.78L660.263,1962.89L469.33,1887.44Z" style="fill:rgb(189,149,252);"/>
    </g>
    <g transform="matrix(-5.18557,0,0,4.95071,7767.96,-2587.5)">
        <path d="M473.745,2033.44L649.384,1964.87L465.152,1888.56L294.062,1951.72L473.745,2033.44Z" style="fill:rgb(151,129,239);"/>
    </g>
    <g transform="matrix(-5.02897,0,0,4.83511,7719.86,-2358.05)">
        <path d="M843.963,2041.48L652.402,2114.31L846.275,2202.18L843.963,2041.48Z" style="fill:rgb(129,89,239);"/>
    </g>
    <g transform="matrix(-4.97998,0,0,4.90455,7677.05,-2499.35)">
        <path d="M657.739,1965.48L843.668,2041.38L654.112,2114.99L475.047,2034.61L657.739,1965.48Z" style="fill:rgb(147,87,242);"/>
    </g>
    <g transform="matrix(1.50775,0,0,1.33983,-5711.6,-2356.92)">
        <text x="8496.27px" y="6954.41px" style="font-family:'ArialNarrow-Bold', 'Arial', sans-serif;font-weight:700;font-stretch:condensed;font-size:2083.33px;fill:rgb(238,238,238);">Prospectrum</text>
    </g>
</svg>
